HIERARCHY
ROOT Hips
{
    OFFSET 0.000000 0.000000 0.000000
    CHANNELS 6 Xposition Yposition Zposition Zrotation Xrotation Yrotation
    JOINT Spine
    {
        OFFSET -0.000000 7.755141 0.000000
        CHANNELS 3 Zrotation Xrotation Yrotation
        JOINT Spine1
        {
            OFFSET -0.000000 20.093737 0.000000
            CHANNELS 3 Zrotation Xrotation Yrotation
            JOINT Neck
            {
                OFFSET -0.000000 21.985235 0.000000
                CHANNELS 3 Zrotation Xrotation Yrotation
                JOINT Head
                {
                    OFFSET -0.000000 14.659108 1.891498
                    CHANNELS 3 Zrotation Xrotation Yrotation
                    End Site
                    {
                        OFFSET -0.000000 18.914978 0.000000
                    }
                }
            }
            JOINT LeftShoulder
            {
                OFFSET 3.789246 18.853123 -0.208244
                CHANNELS 3 Zrotation Xrotation Yrotation
                JOINT LeftArm
                {
                    OFFSET 9.468541 0.000000 0.000000
                    CHANNELS 3 Zrotation Xrotation Yrotation
                    JOINT LeftForeArm
                    {
                        OFFSET 31.465202 0.000000 0.000000
                        CHANNELS 3 Zrotation Xrotation Yrotation
                        JOINT LeftHand
                        {
                            OFFSET 26.964474 0.000000 0.000000
                            CHANNELS 3 Zrotation Xrotation Yrotation
                            End Site
                            {
                                OFFSET 14.186234 0.000000 0.000000
                            }
                        }
                    }
                }
            }
            JOINT RightShoulder
            {
                OFFSET -3.772747 18.853123 -0.208244
                CHANNELS 3 Zrotation Xrotation Yrotation
                JOINT RightArm
                {
                    OFFSET -9.468541 0.000000 0.000000
                    CHANNELS 3 Zrotation Xrotation Yrotation
                    JOINT RightForeArm
                    {
                        OFFSET -31.465202 0.000000 0.000000
                        CHANNELS 3 Zrotation Xrotation Yrotation
                        JOINT RightHand
                        {
                            OFFSET -26.964474 0.000000 0.000000
                            CHANNELS 3 Zrotation Xrotation Yrotation
                            End Site
                            {
                                OFFSET -14.186234 0.000000 0.000000
                            }
                        }
                    }
                }
            }
        }
    }
    JOINT LeftUpLeg
    {
        OFFSET 9.457489 0.000000 0.000000
        CHANNELS 3 Zrotation Xrotation Yrotation
        JOINT LeftLeg
        {
            OFFSET -0.000000 -40.941395 0.000000
            CHANNELS 3 Zrotation Xrotation Yrotation
            JOINT LeftFoot
            {
                OFFSET -0.000000 -37.782906 0.000000
                CHANNELS 3 Zrotation Xrotation Yrotation
                JOINT LeftToeBase
                {
                    OFFSET -0.000000 -6.147367 14.186234
                    CHANNELS 3 Zrotation Xrotation Yrotation
                    End Site
                    {
                        OFFSET -0.000000 0.000000 3.782995
                    }
                }
            }
        }
    }
    JOINT RightUpLeg
    {
        OFFSET -9.457489 0.000000 0.000000
        CHANNELS 3 Zrotation Xrotation Yrotation
        JOINT RightLeg
        {
            OFFSET -0.000000 -40.941395 0.000000
            CHANNELS 3 Zrotation Xrotation Yrotation
            JOINT RightFoot
            {
                OFFSET -0.000000 -37.782906 0.000000
                CHANNELS 3 Zrotation Xrotation Yrotation
                JOINT RightToeBase
                {
                    OFFSET -0.000000 -6.147367 14.186234
                    CHANNELS 3 Zrotation Xrotation Yrotation
                    End Site
                    {
                        OFFSET -0.000000 0.000000 3.782995
                    }
                }
            }
        }
    }
}
MOTION
Frames:    11
Frame Time:    0.010000
48.297482    89.337723    60.329906    -1.405063    -0.687595    2.823370    -1.170244    -9.280282    0.942451    2.565546    2.733347    0.284312    0.711996    12.320150    0.331418    -2.348964    3.961189    0.897075    -2.728786    4.747430    -0.826946    -70.500008    46.763672    -4.855340    6.132966    -11.226368    -15.775104    -29.397135    -11.873405    5.754548    -1.859056    7.737679    -6.401165    56.670818    80.895142    19.311319    -21.882084    -23.318752    7.679864    34.746189    -21.846514    0.344817    2.372549    4.288414    0.781867    -2.287784    4.257728    0.086224    4.040899    -9.458806    19.249241    0.000000    0.000000    0.000000    -3.877509    3.563192    1.285205    2.328195    4.639915    0.245312    4.157115    -8.408216    -12.308025    0.000000    0.000000    0.000000    
48.295509    89.339371    60.336864    -1.413549    -0.674998    2.824654    -1.146699    -9.284808    0.937236    2.538326    2.721766    0.282942    0.666632    12.360949    0.467991    -2.256772    3.826238    1.009722    -2.713976    4.749641    -0.808305    -70.524628    46.829292    -4.849278    6.105916    -11.236260    -15.834742    -29.394695    -11.884195    5.756651    -1.848092    7.744459    -6.388844    57.249073    79.562660    18.417273    -20.544521    -22.848127    9.037166    34.015495    -21.409985    -0.289538    2.383184    4.279087    0.786308    -2.289514    4.263523    0.067870    4.234428    -9.290661    19.329453    0.000000    0.000000    0.000000    -3.864583    3.557005    1.296920    2.325036    4.630665    0.199909    4.183781    -8.403552    -12.289743    0.000000    0.000000    0.000000    
48.292034    89.301384    60.395760    -1.236216    -0.820422    2.949402    -1.431009    -9.187328    0.839699    2.653302    2.774648    0.253783    0.705128    12.302082    0.326200    -2.346560    3.999804    0.890237    -2.733732    4.735559    -0.826928    -70.549362    46.745628    -4.812526    5.992364    -11.140885    -15.946021    -29.376451    -11.817573    5.833577    -1.853650    7.603743    -6.301908    58.326683    79.497353    17.281160    -20.499702    -22.812918    9.124783    33.913307    -21.381927    -0.357303    2.231927    4.479576    0.651988    -2.299070    4.213923    0.089176    4.245983    -9.303950    19.303234    0.000000    0.000000    0.000000    -4.036298    3.824931    1.203054    2.338285    4.549372    0.260008    4.052876    -8.582031    -12.306250    0.000000    0.000000    0.000000    
48.290558    89.300705    60.402828    -1.232178    -0.807752    2.950152    -1.436257    -9.191319    0.841942    2.650544    2.759036    0.255206    0.657101    12.378159    0.434541    -2.255005    3.815306    0.972520    -2.728138    4.744806    -0.833571    -70.580940    46.762703    -4.801414    5.948482    -11.115813    -16.017866    -29.396715    -11.807119    5.877020    -1.850624    7.895967    -6.505689    55.939030    79.618622    19.760441    -20.496719    -22.842783    9.011383    33.982281    -21.417213    -0.306180    2.228849    4.469490    0.654152    -2.299801    4.217908    0.074912    4.022831    -9.500354    19.263517    0.000000    0.000000    0.000000    -4.034779    3.816423    1.187846    2.325666    4.550801    0.260794    4.067009    -8.591727    -12.295801    0.000000    0.000000    0.000000    
48.290863    89.302261    60.411381    -1.234158    -0.806944    2.951597    -1.520968    -9.262144    0.874793    2.841612    2.894713    0.260661    0.615569    12.216770    0.290989    -2.351093    4.023344    0.833150    -2.840572    4.672565    -0.916462    -70.597397    46.764050    -4.784742    5.911990    -11.078055    -16.064508    -29.406149    -11.778228    5.898955    -1.976656    7.495977    -6.343054    58.609314    79.564392    17.030396    -20.522469    -22.828772    9.113563    33.878464    -21.402216    -0.372210    2.230607    4.474822    0.658756    -2.300368    4.218613    0.081376    4.223558    -9.323353    19.324015    0.000000    0.000000    0.000000    -4.034687    3.823738    1.200872    2.332164    4.544392    0.215925    4.055239    -8.581315    -12.258708    0.000000    0.000000    0.000000    
48.288891    89.301743    60.416245    -1.231749    -0.792555    2.952386    -1.540828    -9.266807    0.891431    2.888559    2.938890    0.264448    0.550425    12.072856    0.290289    -2.294055    4.116628    0.808577    -2.865140    4.600749    -0.868226    -70.628113    46.906006    -4.777694    5.911579    -11.094880    -16.101072    -29.423473    -11.794636    5.900817    -2.028993    7.411521    -6.440402    58.380775    80.899872    17.604776    -21.836203    -23.260717    7.818063    34.635033    -21.799589    0.229778    2.228694    4.460863    0.658440    -2.300229    4.224800    0.060652    4.239455    -9.319332    19.341482    0.000000    0.000000    0.000000    -4.041277    3.811237    1.204791    2.344412    4.547122    0.229401    4.040695    -8.587918    -12.283627    0.000000    0.000000    0.000000    
48.289482    89.301605    60.428185    -1.226805    -0.799179    2.952564    -1.484082    -9.254556    0.839950    2.821700    2.910959    0.248136    0.428735    12.138388    0.357712    -2.172828    4.083572    0.828675    -2.935953    4.602842    -0.805142    -70.609993    47.091209    -4.739759    5.979343    -11.204406    -16.067375    -29.515610    -11.883938    5.834042    -2.040689    7.477736    -6.318431    58.529350    80.645943    17.493916    -21.733595    -23.142641    7.908151    34.619713    -21.683758    0.185349    2.222992    4.479654    0.660473    -2.295180    4.214828    0.086633    4.233538    -9.324901    19.308226    0.000000    0.000000    0.000000    -4.043738    3.832467    1.215995    2.338847    4.533634    0.198075    4.061751    -8.587440    -12.262280    0.000000    0.000000    0.000000    
48.288326    89.302040    60.435677    -1.224714    -0.795918    2.952371    -1.422472    -9.237705    0.835524    2.646937    2.784972    0.252229    0.642419    12.364095    0.337615    -2.298491    3.987521    0.879198    -2.798461    4.734748    -0.883713    -70.641266    46.777214    -4.777843    5.842260    -11.111284    -16.105455    -29.465565    -11.821245    5.895401    -1.851235    7.578947    -6.145996    58.704453    80.581276    17.224283    -21.746788    -23.164112    7.872232    34.661846    -21.701208    0.218967    2.220189    4.481063    0.663508    -2.292990    4.214844    0.071988    4.223732    -9.317282    19.329527    0.000000    0.000000    0.000000    -4.048301    3.834029    1.220878    2.348506    4.534420    0.212098    4.067668    -8.599466    -12.293461    0.000000    0.000000    0.000000    
48.287064    89.301155    60.442902    -1.226382    -0.787718    2.950015    -1.478909    -9.264385    0.855338    2.818115    2.917760    0.253138    0.604964    12.122219    0.232353    -2.554141    4.073414    0.803811    -2.932609    4.566799    -0.815714    -70.669434    47.074722    -4.741189    5.934704    -11.232533    -16.060467    -29.498352    -11.914508    5.822079    -2.040803    7.477533    -6.348919    58.482487    80.638695    17.552460    -21.739017    -23.111456    7.930833    34.661320    -21.655537    0.158455    2.225465    4.479323    0.655259    -2.302359    4.215267    0.081307    4.014015    -9.514038    19.269701    0.000000    0.000000    0.000000    -4.046152    3.828115    1.236405    2.348836    4.539668    0.199632    4.040503    -8.588861    -12.246121    0.000000    0.000000    0.000000    
48.286743    89.301231    60.451935    -1.226147    -0.778415    2.955306    -1.472170    -9.283439    0.848126    2.818411    2.930880    0.250302    0.584994    12.139420    0.225845    -2.554541    4.050752    0.791795    -2.941365    4.561607    -0.815505    -70.707550    47.172768    -4.748050    6.004304    -11.307572    -16.004492    -29.445210    -11.974207    5.800169    -2.054599    7.484829    -6.340812    58.456982    80.569824    17.580057    -21.675745    -23.086905    7.975542    34.640198    -21.615362    0.198559    2.221223    4.474721    0.649197    -2.293444    4.212040    0.094471    3.995471    -9.520267    19.274559    0.000000    0.000000    0.000000    -4.045225    3.833490    1.223484    2.344019    4.527749    0.224358    4.019581    -8.590512    -12.250205    0.000000    0.000000    0.000000    
48.285973    89.301468    60.458858    -1.225144    -0.771038    2.953797    -1.470091    -9.288726    0.848273    2.817327    2.926360    0.250463    0.548414    12.081120    0.351005    -2.509022    4.105014    0.905859    -2.948301    4.554017    -0.808540    -70.721153    47.139584    -4.749709    6.006083    -11.313150    -15.983938    -29.409550    -11.977497    5.795440    -2.089520    7.199883    -6.470457    59.174538    80.905167    16.867046    -21.682270    -23.103785    7.901310    34.655926    -21.632807    0.241422    2.220291    4.470486    0.653451    -2.293363    4.222183    0.072739    4.258201    -9.333411    19.340172    0.000000    0.000000    0.000000    -4.048102    3.828310    1.237335    2.354431    4.528439    0.196867    4.033344    -8.602407    -12.289556    0.000000    0.000000    0.000000    
